<?xml version="1.0" encoding="UTF-8"?>
<svg version="1.1" xmlns="http://www.w3.org/2000/svg" width="295" height="229">
<path d="M0 0 C4.49061884 0.07648411 8.98140236 0.08217717 13.47257209 0.09630489 C21.9263188 0.13318296 30.37813963 0.23106292 38.83104891 0.35249877 C48.4757612 0.48796348 58.12057955 0.55293649 67.76601064 0.61284399 C87.5603561 0.73732122 107.35207118 0.95683148 127.14513373 1.21672726 C127.14513373 22.66672726 127.14513373 44.11672726 127.14513373 66.21672726 C119.74075873 67.63985226 112.33638373 69.06297726 104.70763373 70.52922726 C102.40867133 70.97177853 100.10970893 71.4143298 97.741081 71.87029171 C88.62135375 73.62243613 79.49983079 75.36524157 70.35997748 77.00969601 C69.67722251 77.13476025 68.99446754 77.25982449 68.29102302 77.38867855 C65.1553289 77.9441694 62.34998807 78.21672726 59.14513373 78.21672726 C59.14513373 78.87672726 59.14513373 79.53672726 59.14513373 80.21672726 C59.71437568 80.2602734 60.28361762 80.30381954 60.87010932 80.34868526 C68.12089269 80.98055316 75.16796052 82.26548997 82.30138373 83.68547726 C83.52546943 83.92584713 84.74955512 84.166217 86.01073432 84.41387081 C89.23274236 85.04789909 92.4538588 85.68623599 95.67467475 86.32628536 C98.31387876 86.84923754 100.95418178 87.36651494 103.5945127 87.88374233 C106.74741338 88.50206445 109.89937386 89.12513251 113.05138373 89.74797726 C114.23462226 89.98029049 115.41786078 90.21260372 116.63695502 90.45195675 C117.72568915 90.6688818 118.81442328 90.88580685 119.93614936 91.10930538 C120.89638007 91.29948238 121.85661078 91.48965939 122.8459394 91.68559933 C125.14513373 92.21672726 125.14513373 92.21672726 127.14513373 93.21672726 C127.14513373 110.04672726 127.14513373 126.87672726 127.14513373 144.21672726 C120.67367451 147.45245687 114.50943368 150.34001385 107.80309272 152.87786007 C101.62142236 155.26788059 95.70800363 157.87296631 89.86955523 161.01146984 C52.04638518 181.28127426 14.64134306 179.69195702 -27.09071028 178.65726709 C-36.46920914 178.42893738 -45.84809033 178.32257009 -55.22870004 178.22319937 C-74.4412416 178.01710796 -93.64605949 177.65214161 -112.85486627 177.21672726 C-112.85486627 160.38672726 -112.85486627 143.55672726 -112.85486627 126.21672726 C-107.30674127 124.17485226 -101.75861627 122.13297726 -96.04236627 120.02922726 C-77.29982755 113.12762187 -58.57366576 106.18243206 -39.85486627 99.21672726 C-48.66777883 97.67846742 -57.49903544 96.41954582 -66.37049127 95.27141476 C-67.72099966 95.09509634 -69.07148343 94.91858927 -70.4219439 94.74190426 C-73.9330954 94.28303319 -77.44456968 93.82668193 -80.95612359 93.37090206 C-84.55668897 92.90309959 -88.15693767 92.43287247 -91.75721002 91.96282101 C-98.78942985 91.04487167 -105.82214977 90.13089536 -112.85486627 89.21672726 C-112.85486627 70.73672726 -112.85486627 52.25672726 -112.85486627 33.21672726 C-106.48543626 30.3215318 -100.18897997 27.46231845 -93.70642877 24.86907101 C-92.96951806 24.57166515 -92.23260736 24.2742593 -91.47336602 23.96784115 C-89.14310733 23.02769702 -86.81160799 22.09068639 -84.47986627 21.15422726 C-82.27408428 20.26714025 -80.06859889 19.37940989 -77.8648026 18.48740005 C-76.27482187 17.8482035 -74.68181667 17.21645326 -73.08520246 16.59401131 C-68.21304263 14.67108749 -63.51160484 12.57618734 -58.83501458 10.21521664 C-39.11418707 0.62587152 -21.66749691 -0.43333528 0 0 Z" fill="#a7aaad" transform="translate(139.8548662662506,27.783272743225098)"/>
</svg>